<svg xmlns="http://www.w3.org/2000/svg" width="59.846" height="73.569" viewBox="0 0 59.846 73.569">
  <g id="Group_8783" data-name="Group 8783" transform="translate(-127.127 266.127)">
    <path id="Path_11794" data-name="Path 11794" d="M129.3-228.742h12.4l.312,5.18h30.009c.13-1.722.254-3.364.388-5.15h12.365c.728,16.934,1.452,33.764,2.2,51.053h-15.13c-5.967,0-5.593-.057-6.471-5.792-1.1-7.175-2.873-14.248-4.408-21.353a7.588,7.588,0,0,0-1.127-2.756,35.08,35.08,0,0,0-2.86-3.183c-.94,1.091-2.23,2.034-2.762,3.3a77.2,77.2,0,0,0-5.654,26.51c-.122,2.544-.715,3.452-3.413,3.35-5.865-.221-11.744-.068-18.022-.068C127.858-194.8,128.574-211.6,129.3-228.742Z" transform="translate(0 -14.978)" fill="#9c3dfd"/>
    <path id="Path_11795" data-name="Path 11795" d="M182.931-252.643l-.072-.018c-2.7-2.547-9.781-4.369-18.1-4.369-8.415,0-15.571,1.864-18.19,4.465-.066.018-.132.042-.2.066a19.023,19.023,0,0,1,19.551-13.605C173.94-265.751,181.229-259.98,182.931-252.643Z" transform="translate(-7.71)" fill="#9c3dfd"/>
    <path id="Path_11796" data-name="Path 11796" d="M183.345-241.461a6.236,6.236,0,0,0-.09-.887.022.022,0,0,0-.006-.018,2.909,2.909,0,0,0-1.684-2.11c-2.943-2.188-9.206-3.728-16.554-3.842-.306-.006-.611-.012-.917-.012H163.8c-.27,0-.539.006-.815.012-7.612.15-14.043,1.828-16.758,4.166-1.8,1.223-1.846,2.739-.923,6.137,1.121.114,2.254.228,3.416.348.324.036.653.066.983.1.006.108.012.216.018.318.108,1.768.2,3.332.3,4.915h7.462a17.245,17.245,0,0,1-.024-3.087,2.37,2.37,0,0,1,.1-.354,11.733,11.733,0,0,1,2-2.769,11.866,11.866,0,0,1,1.738,2.661,3.926,3.926,0,0,1,.168.8c.084.8.006,1.648.042,2.463a5.384,5.384,0,0,0,.665-2.433,1.736,1.736,0,0,1,.072-.252,21.043,21.043,0,0,1,1.792-3.225,18.774,18.774,0,0,1,1.912,3.1,1.956,1.956,0,0,1,.108.378,14.714,14.714,0,0,1,.072,2.367,4.566,4.566,0,0,0,.689-2.4c0-.132.006-.264.006-.4.006-1.462.084-3.207,1.966-2.895.767.126,1.42,1.822,1.84,2.967.012.036.024.066.036.1a10.869,10.869,0,0,1,.21,2.991h7.324c.1-1.72.18-3.284.27-4.927.006-.114.012-.222.018-.336l1.043-.108c1.229-.126,2.391-.246,3.644-.372A27.951,27.951,0,0,0,183.345-241.461Z" transform="translate(-7.045 -7.13)" fill="#9c3dfd"/>
  </g>
</svg>
