<svg xmlns="http://www.w3.org/2000/svg" xmlns:xlink="http://www.w3.org/1999/xlink" width="86" height="86" viewBox="0 0 86 86">
  <defs>
    <filter id="Rectangle_7" x="0" y="0" width="86" height="86" filterUnits="userSpaceOnUse">
      <feOffset dy="3" input="SourceAlpha"/>
      <feGaussianBlur stdDeviation="3" result="blur"/>
      <feFlood flood-color="#8b89a1" flood-opacity="0.431"/>
      <feComposite operator="in" in2="blur"/>
      <feComposite in="SourceGraphic"/>
    </filter>
  </defs>
  <g id="Group_8321" data-name="Group 8321" transform="translate(8.755 6)">
    <g id="Component_1_19" data-name="Component 1 – 19" transform="translate(0.245 0)">
      <g transform="matrix(1, 0, 0, 1, -9, -6)" filter="url(#Rectangle_7)">
        <rect id="Rectangle_7-2" data-name="Rectangle 7" width="68" height="68" rx="17" transform="translate(9 6)" fill="#fff"/>
      </g>
    </g>
    <path id="Icon_awesome-linkedin-in" data-name="Icon awesome-linkedin-in" d="M7,31.292H.517V10.4H7ZM3.757,7.55A3.775,3.775,0,1,1,7.514,3.758,3.789,3.789,0,0,1,3.757,7.55ZM31.285,31.292H24.811V21.122c0-2.424-.049-5.532-3.373-5.532-3.373,0-3.89,2.633-3.89,5.357V31.292h-6.48V10.4H17.29v2.85h.091a6.817,6.817,0,0,1,6.138-3.374c6.566,0,7.773,4.324,7.773,9.939V31.292Z" transform="translate(18.383 18.354)" fill="#3476a2"/>
  </g>
</svg>
